<svg xmlns="http://www.w3.org/2000/svg" xmlns:xlink="http://www.w3.org/1999/xlink" width="500" zoomAndPan="magnify" viewBox="0 0 375 374.999991" height="500" preserveAspectRatio="xMidYMid meet" version="1.0"><defs><g/><clipPath id="14213266bb"><path d="M 43 151 L 74 151 L 74 176 L 43 176 Z M 43 151 " clip-rule="nonzero"/></clipPath><clipPath id="98f45fe372"><path d="M 33.28125 242.324219 L -5.921875 215.945312 L 40.136719 147.5 L 79.335938 173.878906 Z M 33.28125 242.324219 " clip-rule="nonzero"/></clipPath><clipPath id="d8c8021b50"><path d="M 33.28125 242.324219 L -5.921875 215.945312 L 40.136719 147.5 L 79.335938 173.878906 Z M 33.28125 242.324219 " clip-rule="nonzero"/></clipPath><clipPath id="5174e6886e"><path d="M 68.757812 176.921875 L 40.824219 158.125 L 45.488281 151.199219 L 73.417969 169.996094 Z M 68.757812 176.921875 " clip-rule="nonzero"/></clipPath><clipPath id="149e152425"><path d="M 12 160 L 67 160 L 67 230 L 12 230 Z M 12 160 " clip-rule="nonzero"/></clipPath><clipPath id="5bce48f990"><path d="M 33.28125 242.324219 L -5.921875 215.945312 L 40.136719 147.5 L 79.335938 173.878906 Z M 33.28125 242.324219 " clip-rule="nonzero"/></clipPath><clipPath id="2b1ffde35a"><path d="M 33.28125 242.324219 L -5.921875 215.945312 L 40.136719 147.5 L 79.335938 173.878906 Z M 33.28125 242.324219 " clip-rule="nonzero"/></clipPath><clipPath id="91d92bb987"><path d="M 32.996094 242.132812 L -5.664062 216.117188 L 35.683594 154.667969 L 74.34375 180.679688 Z M 32.996094 242.132812 " clip-rule="nonzero"/></clipPath><clipPath id="89a2542201"><rect x="0" width="289" y="0" height="56"/></clipPath></defs><g clip-path="url(#14213266bb)"><g clip-path="url(#98f45fe372)"><g clip-path="url(#d8c8021b50)"><g clip-path="url(#5174e6886e)"><path fill="#274433" d="M 67.886719 175.117188 L 73.359375 169.953125 C 71.835938 168.929688 47.515625 152.566406 45.992188 151.539062 L 43.269531 158.554688 C 43.964844 159.019531 67.191406 174.652344 67.886719 175.117188 " fill-opacity="1" fill-rule="nonzero"/></g></g></g></g><g clip-path="url(#149e152425)"><g clip-path="url(#5bce48f990)"><g clip-path="url(#2b1ffde35a)"><g clip-path="url(#91d92bb987)"><path fill="#274433" d="M 42.707031 160.171875 C 35.691406 167.054688 28.113281 172.9375 20.035156 177.925781 C 24.964844 190.28125 20.542969 207.359375 14.738281 225.136719 C 14.046875 225.167969 13.378906 225.507812 12.960938 226.128906 C 12.429688 226.917969 12.46875 227.921875 12.980469 228.664062 C 15.050781 225.582031 39.894531 188.664062 41.039062 186.960938 C 39.601562 185.53125 39.335938 183.242188 40.507812 181.496094 C 41.839844 179.515625 44.523438 178.988281 46.503906 180.324219 C 48.480469 181.652344 49.007812 184.339844 47.675781 186.316406 C 46.5 188.0625 44.273438 188.675781 42.410156 187.882812 C 41.265625 189.585938 16.421875 226.503906 14.351562 229.585938 C 15.230469 229.777344 16.175781 229.4375 16.707031 228.648438 C 17.121094 228.027344 17.1875 227.28125 16.957031 226.628906 C 31.238281 214.554688 45.390625 204.023438 58.695312 203.941406 C 60.269531 194.578125 62.867188 185.339844 66.597656 176.25 C 65.925781 175.796875 43.378906 160.625 42.707031 160.171875 " fill-opacity="1" fill-rule="nonzero"/></g></g></g></g><g transform="matrix(1, 0, 0, 1, 71, 170)"><g clip-path="url(#89a2542201)"><g fill="#151715" fill-opacity="1"><g transform="translate(0.548479, 44.622097)"><g><path d="M 16.3125 -29.671875 C 18.125 -29.671875 19.609375 -29.398438 20.765625 -28.859375 C 21.929688 -28.328125 22.96875 -27.707031 23.875 -27 C 24.425781 -26.582031 24.84375 -26.53125 25.125 -26.84375 C 25.414062 -27.164062 25.613281 -27.914062 25.71875 -29.09375 L 26.671875 -29.09375 C 26.617188 -28.019531 26.578125 -26.722656 26.546875 -25.203125 C 26.515625 -23.691406 26.5 -21.675781 26.5 -19.15625 L 25.5625 -19.15625 C 25.425781 -20.414062 25.25 -21.488281 25.03125 -22.375 C 24.8125 -23.269531 24.507812 -24.054688 24.125 -24.734375 C 23.738281 -25.421875 23.191406 -26.039062 22.484375 -26.59375 C 21.796875 -27.269531 21 -27.769531 20.09375 -28.09375 C 19.1875 -28.425781 18.242188 -28.59375 17.265625 -28.59375 C 15.785156 -28.59375 14.523438 -28.203125 13.484375 -27.421875 C 12.441406 -26.648438 11.597656 -25.59375 10.953125 -24.25 C 10.304688 -22.90625 9.832031 -21.390625 9.53125 -19.703125 C 9.226562 -18.015625 9.078125 -16.269531 9.078125 -14.46875 C 9.078125 -12.632812 9.234375 -10.875 9.546875 -9.1875 C 9.867188 -7.5 10.363281 -6 11.03125 -4.6875 C 11.707031 -3.375 12.578125 -2.332031 13.640625 -1.5625 C 14.710938 -0.789062 15.972656 -0.40625 17.421875 -0.40625 C 18.328125 -0.40625 19.238281 -0.578125 20.15625 -0.921875 C 21.070312 -1.265625 21.859375 -1.765625 22.515625 -2.421875 C 23.585938 -3.242188 24.3125 -4.265625 24.6875 -5.484375 C 25.070312 -6.703125 25.363281 -8.328125 25.5625 -10.359375 L 26.5 -10.359375 C 26.5 -7.753906 26.515625 -5.648438 26.546875 -4.046875 C 26.578125 -2.441406 26.617188 -1.09375 26.671875 0 L 25.71875 0 C 25.613281 -1.175781 25.429688 -1.914062 25.171875 -2.21875 C 24.910156 -2.519531 24.476562 -2.476562 23.875 -2.09375 C 22.863281 -1.382812 21.785156 -0.757812 20.640625 -0.21875 C 19.503906 0.3125 18.046875 0.578125 16.265625 0.578125 C 13.367188 0.578125 10.832031 -0.0078125 8.65625 -1.1875 C 6.476562 -2.363281 4.785156 -4.0625 3.578125 -6.28125 C 2.367188 -8.5 1.765625 -11.171875 1.765625 -14.296875 C 1.765625 -17.367188 2.382812 -20.054688 3.625 -22.359375 C 4.875 -24.660156 6.585938 -26.453125 8.765625 -27.734375 C 10.953125 -29.023438 13.46875 -29.671875 16.3125 -29.671875 Z M 16.3125 -29.671875 "/></g></g></g><g fill="#151715" fill-opacity="1"><g transform="translate(29.512923, 44.622097)"><g><path d="M 11.59375 -21.828125 C 13.59375 -21.828125 15.34375 -21.457031 16.84375 -20.71875 C 18.351562 -19.976562 19.53125 -18.785156 20.375 -17.140625 C 21.226562 -15.492188 21.65625 -13.316406 21.65625 -10.609375 C 21.65625 -7.890625 21.226562 -5.710938 20.375 -4.078125 C 19.53125 -2.453125 18.351562 -1.269531 16.84375 -0.53125 C 15.34375 0.207031 13.59375 0.578125 11.59375 0.578125 C 9.644531 0.578125 7.910156 0.207031 6.390625 -0.53125 C 4.867188 -1.269531 3.675781 -2.453125 2.8125 -4.078125 C 1.945312 -5.710938 1.515625 -7.890625 1.515625 -10.609375 C 1.515625 -13.316406 1.945312 -15.492188 2.8125 -17.140625 C 3.675781 -18.785156 4.867188 -19.976562 6.390625 -20.71875 C 7.910156 -21.457031 9.644531 -21.828125 11.59375 -21.828125 Z M 11.59375 -21 C 10.488281 -21 9.566406 -20.179688 8.828125 -18.546875 C 8.085938 -16.921875 7.71875 -14.273438 7.71875 -10.609375 C 7.71875 -6.929688 8.085938 -4.285156 8.828125 -2.671875 C 9.566406 -1.054688 10.488281 -0.25 11.59375 -0.25 C 12.707031 -0.25 13.628906 -1.054688 14.359375 -2.671875 C 15.085938 -4.285156 15.453125 -6.929688 15.453125 -10.609375 C 15.453125 -14.273438 15.085938 -16.921875 14.359375 -18.546875 C 13.628906 -20.179688 12.707031 -21 11.59375 -21 Z M 11.59375 -21 "/></g></g></g><g fill="#151715" fill-opacity="1"><g transform="translate(52.725563, 44.622097)"><g><path d="M 16.265625 -21.828125 C 17.421875 -21.828125 18.359375 -21.679688 19.078125 -21.390625 C 19.804688 -21.097656 20.378906 -20.707031 20.796875 -20.21875 C 21.234375 -19.695312 21.550781 -19.023438 21.75 -18.203125 C 21.957031 -17.378906 22.0625 -16.269531 22.0625 -14.875 L 22.0625 -3.828125 C 22.0625 -2.671875 22.257812 -1.882812 22.65625 -1.46875 C 23.0625 -1.0625 23.742188 -0.859375 24.703125 -0.859375 L 24.703125 0 C 24.179688 -0.03125 23.398438 -0.0664062 22.359375 -0.109375 C 21.316406 -0.148438 20.285156 -0.171875 19.265625 -0.171875 C 18.234375 -0.171875 17.21875 -0.148438 16.21875 -0.109375 C 15.21875 -0.0664062 14.457031 -0.03125 13.9375 0 L 13.9375 -0.859375 C 14.75 -0.859375 15.320312 -1.0625 15.65625 -1.46875 C 15.988281 -1.882812 16.15625 -2.671875 16.15625 -3.828125 L 16.15625 -16.609375 C 16.15625 -17.285156 16.082031 -17.878906 15.9375 -18.390625 C 15.800781 -18.898438 15.554688 -19.296875 15.203125 -19.578125 C 14.847656 -19.867188 14.316406 -20.015625 13.609375 -20.015625 C 12.867188 -20.015625 12.1875 -19.804688 11.5625 -19.390625 C 10.945312 -18.984375 10.453125 -18.414062 10.078125 -17.6875 C 9.710938 -16.96875 9.53125 -16.15625 9.53125 -15.25 L 9.53125 -3.828125 C 9.53125 -2.671875 9.703125 -1.882812 10.046875 -1.46875 C 10.390625 -1.0625 10.957031 -0.859375 11.75 -0.859375 L 11.75 0 C 11.257812 -0.03125 10.539062 -0.0664062 9.59375 -0.109375 C 8.644531 -0.148438 7.664062 -0.171875 6.65625 -0.171875 C 5.613281 -0.171875 4.546875 -0.148438 3.453125 -0.109375 C 2.359375 -0.0664062 1.535156 -0.03125 0.984375 0 L 0.984375 -0.859375 C 1.941406 -0.859375 2.617188 -1.0625 3.015625 -1.46875 C 3.410156 -1.882812 3.609375 -2.671875 3.609375 -3.828125 L 3.609375 -16.765625 C 3.609375 -17.992188 3.421875 -18.898438 3.046875 -19.484375 C 2.679688 -20.078125 1.992188 -20.375 0.984375 -20.375 L 0.984375 -21.25 C 1.859375 -21.164062 2.707031 -21.125 3.53125 -21.125 C 4.6875 -21.125 5.765625 -21.171875 6.765625 -21.265625 C 7.765625 -21.359375 8.6875 -21.503906 9.53125 -21.703125 L 9.53125 -18 C 10.21875 -19.394531 11.148438 -20.378906 12.328125 -20.953125 C 13.503906 -21.535156 14.816406 -21.828125 16.265625 -21.828125 Z M 16.265625 -21.828125 "/></g></g></g><g fill="#151715" fill-opacity="1"><g transform="translate(77.951343, 44.622097)"><g><path d="M 9.328125 -27.984375 L 9.328125 -21.25 L 14.171875 -21.25 L 14.171875 -20.421875 L 9.328125 -20.421875 L 9.328125 -3.828125 C 9.328125 -3.003906 9.476562 -2.421875 9.78125 -2.078125 C 10.082031 -1.734375 10.535156 -1.5625 11.140625 -1.5625 C 11.628906 -1.5625 12.117188 -1.742188 12.609375 -2.109375 C 13.109375 -2.484375 13.550781 -3.125 13.9375 -4.03125 L 14.625 -3.65625 C 14.1875 -2.425781 13.519531 -1.410156 12.625 -0.609375 C 11.738281 0.179688 10.53125 0.578125 9 0.578125 C 8.09375 0.578125 7.296875 0.457031 6.609375 0.21875 C 5.929688 -0.0078125 5.359375 -0.359375 4.890625 -0.828125 C 4.285156 -1.421875 3.882812 -2.160156 3.6875 -3.046875 C 3.5 -3.941406 3.40625 -5.101562 3.40625 -6.53125 L 3.40625 -20.421875 L -0.046875 -20.421875 L -0.046875 -21.25 L 3.40625 -21.25 L 3.40625 -26.671875 C 4.5625 -26.671875 5.625 -26.769531 6.59375 -26.96875 C 7.5625 -27.175781 8.472656 -27.515625 9.328125 -27.984375 Z M 9.328125 -27.984375 "/></g></g></g><g fill="#151715" fill-opacity="1"><g transform="translate(92.413031, 44.622097)"><g><path d="M 15.125 -21.828125 C 16 -21.828125 16.707031 -21.640625 17.25 -21.265625 C 17.800781 -20.898438 18.207031 -20.425781 18.46875 -19.84375 C 18.726562 -19.269531 18.859375 -18.671875 18.859375 -18.046875 C 18.859375 -17.023438 18.5625 -16.191406 17.96875 -15.546875 C 17.382812 -14.910156 16.613281 -14.59375 15.65625 -14.59375 C 14.695312 -14.59375 13.945312 -14.832031 13.40625 -15.3125 C 12.875 -15.789062 12.609375 -16.425781 12.609375 -17.21875 C 12.609375 -17.988281 12.78125 -18.625 13.125 -19.125 C 13.46875 -19.632812 13.898438 -20.066406 14.421875 -20.421875 C 14.035156 -20.535156 13.648438 -20.519531 13.265625 -20.375 C 12.753906 -20.300781 12.265625 -20.09375 11.796875 -19.75 C 11.328125 -19.40625 10.925781 -18.976562 10.59375 -18.46875 C 10.269531 -17.96875 10.007812 -17.421875 9.8125 -16.828125 C 9.625 -16.234375 9.53125 -15.664062 9.53125 -15.125 L 9.53125 -4.234375 C 9.53125 -2.921875 9.851562 -2.03125 10.5 -1.5625 C 11.144531 -1.09375 12.109375 -0.859375 13.390625 -0.859375 L 13.390625 0 C 12.765625 -0.03125 11.847656 -0.0664062 10.640625 -0.109375 C 9.429688 -0.148438 8.171875 -0.171875 6.859375 -0.171875 C 5.765625 -0.171875 4.65625 -0.148438 3.53125 -0.109375 C 2.40625 -0.0664062 1.554688 -0.03125 0.984375 0 L 0.984375 -0.859375 C 1.941406 -0.859375 2.617188 -1.0625 3.015625 -1.46875 C 3.410156 -1.882812 3.609375 -2.671875 3.609375 -3.828125 L 3.609375 -16.765625 C 3.609375 -17.992188 3.421875 -18.898438 3.046875 -19.484375 C 2.679688 -20.078125 1.992188 -20.375 0.984375 -20.375 L 0.984375 -21.25 C 1.859375 -21.164062 2.707031 -21.125 3.53125 -21.125 C 4.6875 -21.125 5.765625 -21.171875 6.765625 -21.265625 C 7.765625 -21.359375 8.6875 -21.503906 9.53125 -21.703125 L 9.53125 -17.875 C 9.863281 -18.613281 10.300781 -19.285156 10.84375 -19.890625 C 11.394531 -20.492188 12.023438 -20.96875 12.734375 -21.3125 C 13.453125 -21.65625 14.25 -21.828125 15.125 -21.828125 Z M 15.125 -21.828125 "/></g></g></g><g fill="#151715" fill-opacity="1"><g transform="translate(111.599406, 44.622097)"><g><path d="M 6.65625 0.28125 C 5.425781 0.28125 4.398438 0.0507812 3.578125 -0.40625 C 2.753906 -0.875 2.148438 -1.5 1.765625 -2.28125 C 1.378906 -3.0625 1.1875 -3.914062 1.1875 -4.84375 C 1.1875 -6.019531 1.453125 -6.976562 1.984375 -7.71875 C 2.523438 -8.457031 3.21875 -9.0625 4.0625 -9.53125 C 4.914062 -10 5.8125 -10.382812 6.75 -10.6875 C 7.695312 -10.988281 8.601562 -11.28125 9.46875 -11.5625 C 10.332031 -11.851562 11.03125 -12.195312 11.5625 -12.59375 C 12.101562 -12.988281 12.375 -13.503906 12.375 -14.140625 L 12.375 -17.34375 C 12.375 -18.050781 12.253906 -18.6875 12.015625 -19.25 C 11.785156 -19.8125 11.429688 -20.242188 10.953125 -20.546875 C 10.472656 -20.847656 9.847656 -21 9.078125 -21 C 8.535156 -21 7.988281 -20.921875 7.4375 -20.765625 C 6.882812 -20.617188 6.429688 -20.367188 6.078125 -20.015625 C 6.847656 -19.742188 7.441406 -19.328125 7.859375 -18.765625 C 8.285156 -18.203125 8.5 -17.5625 8.5 -16.84375 C 8.5 -15.914062 8.175781 -15.175781 7.53125 -14.625 C 6.894531 -14.082031 6.140625 -13.8125 5.265625 -13.8125 C 4.273438 -13.8125 3.523438 -14.117188 3.015625 -14.734375 C 2.515625 -15.347656 2.265625 -16.09375 2.265625 -16.96875 C 2.265625 -17.757812 2.460938 -18.414062 2.859375 -18.9375 C 3.253906 -19.457031 3.804688 -19.953125 4.515625 -20.421875 C 5.285156 -20.859375 6.210938 -21.203125 7.296875 -21.453125 C 8.378906 -21.703125 9.550781 -21.828125 10.8125 -21.828125 C 12.070312 -21.828125 13.207031 -21.695312 14.21875 -21.4375 C 15.226562 -21.175781 16.078125 -20.703125 16.765625 -20.015625 C 17.398438 -19.378906 17.8125 -18.601562 18 -17.6875 C 18.1875 -16.769531 18.28125 -15.613281 18.28125 -14.21875 L 18.28125 -3.046875 C 18.28125 -2.359375 18.347656 -1.882812 18.484375 -1.625 C 18.628906 -1.363281 18.863281 -1.234375 19.1875 -1.234375 C 19.4375 -1.234375 19.675781 -1.300781 19.90625 -1.4375 C 20.144531 -1.570312 20.398438 -1.738281 20.671875 -1.9375 L 21.078125 -1.234375 C 20.503906 -0.742188 19.835938 -0.367188 19.078125 -0.109375 C 18.328125 0.148438 17.488281 0.28125 16.5625 0.28125 C 15.550781 0.28125 14.742188 0.140625 14.140625 -0.140625 C 13.535156 -0.429688 13.101562 -0.820312 12.84375 -1.3125 C 12.582031 -1.8125 12.453125 -2.390625 12.453125 -3.046875 C 11.796875 -2.003906 11 -1.1875 10.0625 -0.59375 C 9.132812 -0.0078125 8 0.28125 6.65625 0.28125 Z M 9.578125 -2.34375 C 10.117188 -2.34375 10.613281 -2.472656 11.0625 -2.734375 C 11.519531 -2.992188 11.957031 -3.425781 12.375 -4.03125 L 12.375 -12.453125 C 12.125 -12.035156 11.78125 -11.660156 11.34375 -11.328125 C 10.90625 -11.003906 10.4375 -10.671875 9.9375 -10.328125 C 9.445312 -9.992188 8.972656 -9.617188 8.515625 -9.203125 C 8.066406 -8.796875 7.707031 -8.289062 7.4375 -7.6875 C 7.164062 -7.082031 7.03125 -6.351562 7.03125 -5.5 C 7.03125 -4.4375 7.257812 -3.644531 7.71875 -3.125 C 8.1875 -2.601562 8.804688 -2.34375 9.578125 -2.34375 Z M 9.578125 -2.34375 "/></g></g></g><g fill="#151715" fill-opacity="1"><g transform="translate(132.881083, 44.622097)"><g><path d="M 11.671875 -21.828125 C 12.734375 -21.828125 13.707031 -21.707031 14.59375 -21.46875 C 15.488281 -21.238281 16.226562 -20.945312 16.8125 -20.59375 C 17.519531 -20.15625 18.070312 -19.613281 18.46875 -18.96875 C 18.863281 -18.320312 19.0625 -17.570312 19.0625 -16.71875 C 19.0625 -15.757812 18.757812 -14.972656 18.15625 -14.359375 C 17.5625 -13.742188 16.785156 -13.4375 15.828125 -13.4375 C 14.867188 -13.4375 14.097656 -13.707031 13.515625 -14.25 C 12.941406 -14.800781 12.65625 -15.546875 12.65625 -16.484375 C 12.65625 -17.359375 12.925781 -18.085938 13.46875 -18.671875 C 14.019531 -19.265625 14.65625 -19.65625 15.375 -19.84375 C 15.15625 -20.125 14.820312 -20.359375 14.375 -20.546875 C 13.9375 -20.734375 13.445312 -20.828125 12.90625 -20.828125 C 12.050781 -20.828125 11.300781 -20.582031 10.65625 -20.09375 C 10.019531 -19.601562 9.484375 -18.914062 9.046875 -18.03125 C 8.609375 -17.15625 8.269531 -16.128906 8.03125 -14.953125 C 7.800781 -13.773438 7.6875 -12.488281 7.6875 -11.09375 C 7.6875 -8.988281 7.953125 -7.332031 8.484375 -6.125 C 9.015625 -4.914062 9.695312 -4.0625 10.53125 -3.5625 C 11.375 -3.070312 12.25 -2.828125 13.15625 -2.828125 C 13.675781 -2.828125 14.242188 -2.910156 14.859375 -3.078125 C 15.472656 -3.242188 16.101562 -3.570312 16.75 -4.0625 C 17.394531 -4.5625 17.988281 -5.265625 18.53125 -6.171875 L 19.234375 -5.921875 C 18.929688 -4.898438 18.4375 -3.882812 17.75 -2.875 C 17.0625 -1.863281 16.171875 -1.035156 15.078125 -0.390625 C 13.984375 0.253906 12.640625 0.578125 11.046875 0.578125 C 9.273438 0.578125 7.664062 0.1875 6.21875 -0.59375 C 4.78125 -1.375 3.628906 -2.578125 2.765625 -4.203125 C 1.910156 -5.835938 1.484375 -7.941406 1.484375 -10.515625 C 1.484375 -12.984375 1.925781 -15.054688 2.8125 -16.734375 C 3.707031 -18.421875 4.921875 -19.691406 6.453125 -20.546875 C 7.984375 -21.398438 9.722656 -21.828125 11.671875 -21.828125 Z M 11.671875 -21.828125 "/></g></g></g><g fill="#151715" fill-opacity="1"><g transform="translate(153.258903, 44.622097)"><g><path d="M 9.328125 -27.984375 L 9.328125 -21.25 L 14.171875 -21.25 L 14.171875 -20.421875 L 9.328125 -20.421875 L 9.328125 -3.828125 C 9.328125 -3.003906 9.476562 -2.421875 9.78125 -2.078125 C 10.082031 -1.734375 10.535156 -1.5625 11.140625 -1.5625 C 11.628906 -1.5625 12.117188 -1.742188 12.609375 -2.109375 C 13.109375 -2.484375 13.550781 -3.125 13.9375 -4.03125 L 14.625 -3.65625 C 14.1875 -2.425781 13.519531 -1.410156 12.625 -0.609375 C 11.738281 0.179688 10.53125 0.578125 9 0.578125 C 8.09375 0.578125 7.296875 0.457031 6.609375 0.21875 C 5.929688 -0.0078125 5.359375 -0.359375 4.890625 -0.828125 C 4.285156 -1.421875 3.882812 -2.160156 3.6875 -3.046875 C 3.5 -3.941406 3.40625 -5.101562 3.40625 -6.53125 L 3.40625 -20.421875 L -0.046875 -20.421875 L -0.046875 -21.25 L 3.40625 -21.25 L 3.40625 -26.671875 C 4.5625 -26.671875 5.625 -26.769531 6.59375 -26.96875 C 7.5625 -27.175781 8.472656 -27.515625 9.328125 -27.984375 Z M 9.328125 -27.984375 "/></g></g></g><g fill="#151715" fill-opacity="1"><g transform="translate(167.720592, 44.622097)"><g><path d="M 16.640625 -29.671875 C 18.503906 -29.671875 20.023438 -29.410156 21.203125 -28.890625 C 22.378906 -28.367188 23.4375 -27.738281 24.375 -27 C 24.695312 -26.75 24.96875 -26.625 25.1875 -26.625 C 25.707031 -26.625 26.050781 -27.445312 26.21875 -29.09375 L 27.15625 -29.09375 C 27.101562 -28.019531 27.0625 -26.722656 27.03125 -25.203125 C 27.007812 -23.691406 27 -21.675781 27 -19.15625 L 26.046875 -19.15625 C 25.859375 -20.789062 25.566406 -22.21875 25.171875 -23.4375 C 24.773438 -24.65625 24.039062 -25.707031 22.96875 -26.59375 C 22.3125 -27.21875 21.492188 -27.707031 20.515625 -28.0625 C 19.546875 -28.414062 18.570312 -28.59375 17.59375 -28.59375 C 16.082031 -28.59375 14.789062 -28.203125 13.71875 -27.421875 C 12.65625 -26.648438 11.78125 -25.59375 11.09375 -24.25 C 10.40625 -22.90625 9.894531 -21.390625 9.5625 -19.703125 C 9.238281 -18.015625 9.078125 -16.269531 9.078125 -14.46875 C 9.078125 -9.53125 9.753906 -5.925781 11.109375 -3.65625 C 12.472656 -1.382812 14.425781 -0.25 16.96875 -0.25 C 17.625 -0.25 18.195312 -0.328125 18.6875 -0.484375 C 19.1875 -0.648438 19.585938 -0.84375 19.890625 -1.0625 C 20.273438 -1.34375 20.535156 -1.640625 20.671875 -1.953125 C 20.804688 -2.265625 20.875 -2.679688 20.875 -3.203125 L 20.875 -7.234375 C 20.875 -8.492188 20.769531 -9.429688 20.5625 -10.046875 C 20.363281 -10.660156 19.960938 -11.078125 19.359375 -11.296875 C 18.753906 -11.515625 17.875 -11.640625 16.71875 -11.671875 L 16.71875 -12.5 C 17.300781 -12.46875 17.992188 -12.441406 18.796875 -12.421875 C 19.609375 -12.410156 20.453125 -12.398438 21.328125 -12.390625 C 22.203125 -12.378906 23.007812 -12.375 23.75 -12.375 C 24.90625 -12.375 25.960938 -12.382812 26.921875 -12.40625 C 27.878906 -12.4375 28.660156 -12.46875 29.265625 -12.5 L 29.265625 -11.671875 C 28.742188 -11.640625 28.351562 -11.539062 28.09375 -11.375 C 27.832031 -11.21875 27.648438 -10.890625 27.546875 -10.390625 C 27.453125 -9.898438 27.40625 -9.148438 27.40625 -8.140625 L 27.40625 0 L 26.59375 0 C 26.5625 -0.46875 26.457031 -0.972656 26.28125 -1.515625 C 26.101562 -2.066406 25.804688 -2.34375 25.390625 -2.34375 C 25.203125 -2.34375 24.945312 -2.296875 24.625 -2.203125 C 24.3125 -2.109375 23.828125 -1.867188 23.171875 -1.484375 C 22.160156 -0.898438 21.09375 -0.410156 19.96875 -0.015625 C 18.84375 0.378906 17.664062 0.578125 16.4375 0.578125 C 13.257812 0.578125 10.570312 -0.0078125 8.375 -1.1875 C 6.1875 -2.363281 4.535156 -4.054688 3.421875 -6.265625 C 2.316406 -8.472656 1.765625 -11.125 1.765625 -14.21875 C 1.765625 -17.34375 2.398438 -20.054688 3.671875 -22.359375 C 4.953125 -24.660156 6.707031 -26.453125 8.9375 -27.734375 C 11.164062 -29.023438 13.734375 -29.671875 16.640625 -29.671875 Z M 16.640625 -29.671875 "/></g></g></g><g fill="#151715" fill-opacity="1"><g transform="translate(197.917563, 44.622097)"><g><path d="M 21.453125 -21.703125 L 21.453125 -4.484375 C 21.453125 -3.242188 21.644531 -2.328125 22.03125 -1.734375 C 22.414062 -1.148438 23.097656 -0.859375 24.078125 -0.859375 L 24.078125 0 C 23.234375 -0.0820312 22.382812 -0.125 21.53125 -0.125 C 20.382812 -0.125 19.316406 -0.0820312 18.328125 0 C 17.335938 0.0820312 16.40625 0.234375 15.53125 0.453125 L 15.53125 -3.25 C 14.875 -1.875 13.960938 -0.890625 12.796875 -0.296875 C 11.628906 0.285156 10.335938 0.578125 8.921875 0.578125 C 7.765625 0.578125 6.828125 0.425781 6.109375 0.125 C 5.398438 -0.175781 4.84375 -0.5625 4.4375 -1.03125 C 3.96875 -1.550781 3.640625 -2.234375 3.453125 -3.078125 C 3.265625 -3.929688 3.171875 -5.03125 3.171875 -6.375 L 3.171875 -16.765625 C 3.171875 -17.992188 2.984375 -18.898438 2.609375 -19.484375 C 2.242188 -20.078125 1.550781 -20.375 0.53125 -20.375 L 0.53125 -21.25 C 1.40625 -21.164062 2.253906 -21.125 3.078125 -21.125 C 4.234375 -21.125 5.3125 -21.171875 6.3125 -21.265625 C 7.3125 -21.359375 8.234375 -21.503906 9.078125 -21.703125 L 9.078125 -4.6875 C 9.078125 -4 9.140625 -3.394531 9.265625 -2.875 C 9.390625 -2.351562 9.628906 -1.945312 9.984375 -1.65625 C 10.335938 -1.375 10.859375 -1.234375 11.546875 -1.234375 C 12.285156 -1.234375 12.945312 -1.4375 13.53125 -1.84375 C 14.125 -2.257812 14.601562 -2.828125 14.96875 -3.546875 C 15.34375 -4.273438 15.53125 -5.09375 15.53125 -6 L 15.53125 -16.765625 C 15.53125 -17.992188 15.34375 -18.898438 14.96875 -19.484375 C 14.601562 -20.078125 13.914062 -20.375 12.90625 -20.375 L 12.90625 -21.25 C 13.78125 -21.164062 14.628906 -21.125 15.453125 -21.125 C 16.597656 -21.125 17.671875 -21.171875 18.671875 -21.265625 C 19.671875 -21.359375 20.597656 -21.503906 21.453125 -21.703125 Z M 21.453125 -21.703125 "/></g></g></g><g fill="#151715" fill-opacity="1"><g transform="translate(222.814659, 44.622097)"><g><path d="M 6.65625 0.28125 C 5.425781 0.28125 4.398438 0.0507812 3.578125 -0.40625 C 2.753906 -0.875 2.148438 -1.5 1.765625 -2.28125 C 1.378906 -3.0625 1.1875 -3.914062 1.1875 -4.84375 C 1.1875 -6.019531 1.453125 -6.976562 1.984375 -7.71875 C 2.523438 -8.457031 3.21875 -9.0625 4.0625 -9.53125 C 4.914062 -10 5.8125 -10.382812 6.75 -10.6875 C 7.695312 -10.988281 8.601562 -11.28125 9.46875 -11.5625 C 10.332031 -11.851562 11.03125 -12.195312 11.5625 -12.59375 C 12.101562 -12.988281 12.375 -13.503906 12.375 -14.140625 L 12.375 -17.34375 C 12.375 -18.050781 12.253906 -18.6875 12.015625 -19.25 C 11.785156 -19.8125 11.429688 -20.242188 10.953125 -20.546875 C 10.472656 -20.847656 9.847656 -21 9.078125 -21 C 8.535156 -21 7.988281 -20.921875 7.4375 -20.765625 C 6.882812 -20.617188 6.429688 -20.367188 6.078125 -20.015625 C 6.847656 -19.742188 7.441406 -19.328125 7.859375 -18.765625 C 8.285156 -18.203125 8.5 -17.5625 8.5 -16.84375 C 8.5 -15.914062 8.175781 -15.175781 7.53125 -14.625 C 6.894531 -14.082031 6.140625 -13.8125 5.265625 -13.8125 C 4.273438 -13.8125 3.523438 -14.117188 3.015625 -14.734375 C 2.515625 -15.347656 2.265625 -16.09375 2.265625 -16.96875 C 2.265625 -17.757812 2.460938 -18.414062 2.859375 -18.9375 C 3.253906 -19.457031 3.804688 -19.953125 4.515625 -20.421875 C 5.285156 -20.859375 6.210938 -21.203125 7.296875 -21.453125 C 8.378906 -21.703125 9.550781 -21.828125 10.8125 -21.828125 C 12.070312 -21.828125 13.207031 -21.695312 14.21875 -21.4375 C 15.226562 -21.175781 16.078125 -20.703125 16.765625 -20.015625 C 17.398438 -19.378906 17.8125 -18.601562 18 -17.6875 C 18.1875 -16.769531 18.28125 -15.613281 18.28125 -14.21875 L 18.28125 -3.046875 C 18.28125 -2.359375 18.347656 -1.882812 18.484375 -1.625 C 18.628906 -1.363281 18.863281 -1.234375 19.1875 -1.234375 C 19.4375 -1.234375 19.675781 -1.300781 19.90625 -1.4375 C 20.144531 -1.570312 20.398438 -1.738281 20.671875 -1.9375 L 21.078125 -1.234375 C 20.503906 -0.742188 19.835938 -0.367188 19.078125 -0.109375 C 18.328125 0.148438 17.488281 0.28125 16.5625 0.28125 C 15.550781 0.28125 14.742188 0.140625 14.140625 -0.140625 C 13.535156 -0.429688 13.101562 -0.820312 12.84375 -1.3125 C 12.582031 -1.8125 12.453125 -2.390625 12.453125 -3.046875 C 11.796875 -2.003906 11 -1.1875 10.0625 -0.59375 C 9.132812 -0.0078125 8 0.28125 6.65625 0.28125 Z M 9.578125 -2.34375 C 10.117188 -2.34375 10.613281 -2.472656 11.0625 -2.734375 C 11.519531 -2.992188 11.957031 -3.425781 12.375 -4.03125 L 12.375 -12.453125 C 12.125 -12.035156 11.78125 -11.660156 11.34375 -11.328125 C 10.90625 -11.003906 10.4375 -10.671875 9.9375 -10.328125 C 9.445312 -9.992188 8.972656 -9.617188 8.515625 -9.203125 C 8.066406 -8.796875 7.707031 -8.289062 7.4375 -7.6875 C 7.164062 -7.082031 7.03125 -6.351562 7.03125 -5.5 C 7.03125 -4.4375 7.257812 -3.644531 7.71875 -3.125 C 8.1875 -2.601562 8.804688 -2.34375 9.578125 -2.34375 Z M 9.578125 -2.34375 "/></g></g></g><g fill="#151715" fill-opacity="1"><g transform="translate(244.096336, 44.622097)"><g><path d="M 15.125 -21.828125 C 16 -21.828125 16.707031 -21.640625 17.25 -21.265625 C 17.800781 -20.898438 18.207031 -20.425781 18.46875 -19.84375 C 18.726562 -19.269531 18.859375 -18.671875 18.859375 -18.046875 C 18.859375 -17.023438 18.5625 -16.191406 17.96875 -15.546875 C 17.382812 -14.910156 16.613281 -14.59375 15.65625 -14.59375 C 14.695312 -14.59375 13.945312 -14.832031 13.40625 -15.3125 C 12.875 -15.789062 12.609375 -16.425781 12.609375 -17.21875 C 12.609375 -17.988281 12.78125 -18.625 13.125 -19.125 C 13.46875 -19.632812 13.898438 -20.066406 14.421875 -20.421875 C 14.035156 -20.535156 13.648438 -20.519531 13.265625 -20.375 C 12.753906 -20.300781 12.265625 -20.09375 11.796875 -19.75 C 11.328125 -19.40625 10.925781 -18.976562 10.59375 -18.46875 C 10.269531 -17.96875 10.007812 -17.421875 9.8125 -16.828125 C 9.625 -16.234375 9.53125 -15.664062 9.53125 -15.125 L 9.53125 -4.234375 C 9.53125 -2.921875 9.851562 -2.03125 10.5 -1.5625 C 11.144531 -1.09375 12.109375 -0.859375 13.390625 -0.859375 L 13.390625 0 C 12.765625 -0.03125 11.847656 -0.0664062 10.640625 -0.109375 C 9.429688 -0.148438 8.171875 -0.171875 6.859375 -0.171875 C 5.765625 -0.171875 4.65625 -0.148438 3.53125 -0.109375 C 2.40625 -0.0664062 1.554688 -0.03125 0.984375 0 L 0.984375 -0.859375 C 1.941406 -0.859375 2.617188 -1.0625 3.015625 -1.46875 C 3.410156 -1.882812 3.609375 -2.671875 3.609375 -3.828125 L 3.609375 -16.765625 C 3.609375 -17.992188 3.421875 -18.898438 3.046875 -19.484375 C 2.679688 -20.078125 1.992188 -20.375 0.984375 -20.375 L 0.984375 -21.25 C 1.859375 -21.164062 2.707031 -21.125 3.53125 -21.125 C 4.6875 -21.125 5.765625 -21.171875 6.765625 -21.265625 C 7.765625 -21.359375 8.6875 -21.503906 9.53125 -21.703125 L 9.53125 -17.875 C 9.863281 -18.613281 10.300781 -19.285156 10.84375 -19.890625 C 11.394531 -20.492188 12.023438 -20.96875 12.734375 -21.3125 C 13.453125 -21.65625 14.25 -21.828125 15.125 -21.828125 Z M 15.125 -21.828125 "/></g></g></g><g fill="#151715" fill-opacity="1"><g transform="translate(262.707322, 44.622097)"><g><path d="M 21.203125 -32.171875 L 21.203125 -4.515625 C 21.203125 -3.285156 21.394531 -2.375 21.78125 -1.78125 C 22.164062 -1.195312 22.847656 -0.90625 23.828125 -0.90625 L 23.828125 -0.046875 C 22.984375 -0.128906 22.132812 -0.171875 21.28125 -0.171875 C 20.132812 -0.171875 19.0625 -0.128906 18.0625 -0.046875 C 17.0625 0.0351562 16.132812 0.1875 15.28125 0.40625 L 15.28125 -27.25 C 15.28125 -28.476562 15.09375 -29.382812 14.71875 -29.96875 C 14.351562 -30.5625 13.664062 -30.859375 12.65625 -30.859375 L 12.65625 -31.71875 C 13.53125 -31.632812 14.378906 -31.59375 15.203125 -31.59375 C 16.328125 -31.59375 17.394531 -31.640625 18.40625 -31.734375 C 19.425781 -31.835938 20.359375 -31.984375 21.203125 -32.171875 Z M 10.71875 -21.828125 C 11.925781 -21.828125 12.988281 -21.625 13.90625 -21.21875 C 14.820312 -20.820312 15.539062 -20.160156 16.0625 -19.234375 L 15.578125 -18.78125 C 15.222656 -19.4375 14.75 -19.90625 14.15625 -20.1875 C 13.5625 -20.476562 12.9375 -20.625 12.28125 -20.625 C 10.882812 -20.625 9.773438 -19.804688 8.953125 -18.171875 C 8.128906 -16.546875 7.734375 -14.035156 7.765625 -10.640625 C 7.765625 -8.316406 7.921875 -6.460938 8.234375 -5.078125 C 8.554688 -3.691406 9.007812 -2.695312 9.59375 -2.09375 C 10.1875 -1.488281 10.863281 -1.1875 11.625 -1.1875 C 12.5625 -1.1875 13.398438 -1.554688 14.140625 -2.296875 C 14.878906 -3.035156 15.273438 -4.035156 15.328125 -5.296875 L 15.53125 -3.859375 C 15.125 -2.410156 14.457031 -1.304688 13.53125 -0.546875 C 12.613281 0.203125 11.414062 0.578125 9.9375 0.578125 C 8.320312 0.578125 6.878906 0.179688 5.609375 -0.609375 C 4.335938 -1.410156 3.34375 -2.640625 2.625 -4.296875 C 1.914062 -5.953125 1.5625 -8.09375 1.5625 -10.71875 C 1.5625 -13.21875 1.957031 -15.28125 2.75 -16.90625 C 3.539062 -18.539062 4.628906 -19.769531 6.015625 -20.59375 C 7.398438 -21.414062 8.96875 -21.828125 10.71875 -21.828125 Z M 10.71875 -21.828125 "/></g></g></g></g></g><path stroke-linecap="butt" transform="matrix(0.75, 0.000451015, -0.000451015, 0.75, 13.667593, 227.25605)" fill="none" stroke-linejoin="miter" d="M 0.00200617 2.50235 L 467.21565 2.497431 " stroke="#151715" stroke-width="5" stroke-opacity="1" stroke-miterlimit="4"/><path stroke-linecap="butt" transform="matrix(0.75, 0, 0, 0.75, 214.920898, 234.079365)" fill="none" stroke-linejoin="miter" d="M 0.00130322 2.498347 L 198.876316 2.498347 " stroke="#151715" stroke-width="5" stroke-opacity="1" stroke-miterlimit="4"/></svg>